name C:\Users\u0101727\Documents\MyRepositories\upper-imu-dc\Results\main_tracking\Case_41\FLX01_angularVelocities_groundFrame.mot
datacolumns 4
datarows 70
range 0.51000000 1.20000000
endheader 
time	radius_imu_x	radius_imu_y	radius_imu_z	
          0.51000000	         -0.21618741	         -4.62888905	          0.34263648	
          0.52000000	         -0.21378388	         -4.62490277	          0.34592987	
          0.53000000	         -0.21069733	         -4.61814972	          0.34873279	
          0.54000000	         -0.20787833	         -4.60833059	          0.35111406	
          0.55000000	         -0.20588392	         -4.59517286	          0.35360253	
          0.56000000	         -0.20540426	         -4.57858769	          0.35677831	
          0.57000000	         -0.20714538	         -4.55912027	          0.36135056	
          0.58000000	         -0.21075081	         -4.53752357	          0.36766410	
          0.59000000	         -0.21648873	         -4.51545770	          0.37607450	
          0.60000000	         -0.22483631	         -4.49446952	          0.38685981	
          0.61000000	         -0.23511415	         -4.47657775	          0.40013559	
          0.62000000	         -0.24692790	         -4.46322981	          0.41618226	
          0.63000000	         -0.26063862	         -4.45557258	          0.43558153	
          0.64000000	         -0.27687120	         -4.45393240	          0.45912355	
          0.65000000	         -0.29500813	         -4.45824251	          0.48717081	
          0.66000000	         -0.31418927	         -4.46824586	          0.51964528	
          0.67000000	         -0.33409929	         -4.48370693	          0.55594790	
          0.68000000	         -0.35438186	         -4.50474251	          0.59498033	
          0.69000000	         -0.37488826	         -4.53051874	          0.63604011	
          0.70000000	         -0.39551117	         -4.55934559	          0.67894727	
          0.71000000	         -0.41615773	         -4.58898884	          0.72361025	
          0.72000000	         -0.43674235	         -4.61716673	          0.76971114	
          0.73000000	         -0.45712546	         -4.64191562	          0.81657525	
          0.74000000	         -0.47719755	         -4.66159046	          0.86333896	
          0.75000000	         -0.49690800	         -4.67482342	          0.90917232	
          0.76000000	         -0.51626913	         -4.68056792	          0.95337740	
          0.77000000	         -0.53533138	         -4.67819257	          0.99542132	
          0.78000000	         -0.55415906	         -4.66758032	          1.03493641	
          0.79000000	         -0.57279993	         -4.64917574	          1.07172061	
          0.80000000	         -0.59127243	         -4.62395294	          1.10575222	
          0.81000000	         -0.60953087	         -4.59333874	          1.13718980	
          0.82000000	         -0.62744567	         -4.55910902	          1.16636414	
          0.83000000	         -0.64478651	         -4.52326243	          1.19376357	
          0.84000000	         -0.66118659	         -4.48790029	          1.21999680	
          0.85000000	         -0.67612504	         -4.45510903	          1.24575149	
          0.86000000	         -0.68892424	         -4.42684857	          1.27175027	
          0.87000000	         -0.69877528	         -4.40485107	          1.29871017	
          0.88000000	         -0.70478502	         -4.39053642	          1.32730405	
          0.89000000	         -0.70604168	         -4.38494888	          1.35812746	
          0.90000000	         -0.70169106	         -4.38871220	          1.39167214	
          0.91000000	         -0.69101812	         -4.40200033	          1.42830495	
          0.92000000	         -0.67353177	         -4.42452236	          1.46824943	
          0.93000000	         -0.64905301	         -4.45551194	          1.51157266	
          0.94000000	         -0.61779797	         -4.49372226	          1.55817195	
          0.95000000	         -0.58043623	         -4.53743861	          1.60774939	
          0.96000000	         -0.53810315	         -4.58451485	          1.65977339	
          0.97000000	         -0.49235387	         -4.63244236	          1.71343799	
          0.98000000	         -0.44506262	         -4.67846190	          1.76763903	
          0.99000000	         -0.39828650	         -4.71972239	          1.82099036	
          1.00000000	         -0.35412013	         -4.75347855	          1.87189815	
          1.01000000	         -0.31456107	         -4.77729951	          1.91869021	
          1.02000000	         -0.28139893	         -4.78924638	          1.95977082	
          1.03000000	         -0.25614043	         -4.78798503	          1.99376219	
          1.04000000	         -0.23997081	         -4.77282540	          2.01960435	
          1.05000000	         -0.23373261	         -4.74370157	          2.03660591	
          1.06000000	         -0.23790340	         -4.70111233	          2.04445434	
          1.07000000	         -0.25257488	         -4.64603104	          2.04319683	
          1.08000000	         -0.27745045	         -4.57978780	          2.03319632	
          1.09000000	         -0.31187618	         -4.50393208	          2.01506725	
          1.10000000	         -0.35490602	         -4.42009354	          1.98960315	
          1.11000000	         -0.40538924	         -4.32986230	          1.95771063	
          1.12000000	         -0.46206237	         -4.23470274	          1.92035946	
          1.13000000	         -0.52362929	         -4.13590478	          1.87854967	
          1.14000000	         -0.58881895	         -4.03456710	          1.83329132	
          1.15000000	         -0.65641705	         -3.93160168	          1.78559004	
          1.16000000	         -0.72527495	         -3.82774787	          1.73642963	
          1.17000000	         -0.79430627	         -3.72358587	          1.68674532	
          1.18000000	         -0.86248442	         -3.61954319	          1.63738776	
          1.19000000	         -0.92884962	         -3.51589421	          1.58908455	
          1.20000000	         -0.99252683	         -3.41275810	          1.54240773	
